#!OML:ASF H:\Pregnant\Project 1\Capture day 1\Session 1\femalepreg.ASF
:FULLY-SPECIFIED
:DEGREES
153
root 6.1523 13.4906 21.252 -144.124 2.87831 -168.471
lowerback 5.87736 0.572523 -9.58125
upperback 1.68426 0.454576 -3.31068
thorax -1.57179 0.374138 1.89364
lowerneck -16.7268 1.69421 -1.41916
upperneck 16.6082 1.77497 6.17522
head 7.8171 1.48386 2.50343
rclavicle 2.22639e-014 -2.38542e-014
rhumerus -2.73051 27.2561 -78.692
rradius 56.2323
rwrist -15.1016
rhand -13.1571 -20.2255
rfingers 7.12502
rthumb 12.9418 -49.8042
lclavicle 2.22639e-014 -2.38542e-014
lhumerus 22.4806 -24.1395 72.3595
lradius 24.4531
lwrist 33.3596
lhand -32.853 -7.58948
lfingers 7.12502
lthumb -6.07231 22.3035
rfemur -82.9988 -11.6979 37.4085
rtibia 67.3381
rfoot -13.8079 -8.16131
rtoes -12.7377
lfemur -92.1784 20.2839 -26.2467
ltibia 78.001
lfoot -23.6579 -5.7168
ltoes -9.31275
154
root 6.17696 13.3963 21.2469 -143.816 2.63339 -168.659
lowerback 5.9855 0.535153 -9.49262
upperback 1.72607 0.399663 -3.2733
thorax -1.58309 0.345759 1.887
lowerneck -16.8091 1.62174 -1.48464
upperneck 16.4534 1.68372 6.17771
head 7.78341 1.43124 2.50228
rclavicle -3.18055e-015 -1.74931e-014
rhumerus -1.59406 27.2625 -78.4203
rradius 55.874
rwrist -15.0914
rhand -13.0179 -20.1855
rfingers 7.12502
rthumb 13.076 -49.7556
lclavicle -3.18055e-015 -1.74931e-014
lhumerus 22.7696 -23.5913 72.8457
lradius 24.5117
lwrist 33.279
lhand -33.2198 -7.7606
lfingers 7.12502
lthumb -6.42637 22.1219
rfemur -84.1105 -12.0344 37.7752
rtibia 68.5551
rfoot -14.806 -8.36987
rtoes -12.7039
lfemur -93.4862 20.3072 -26.7359
ltibia 79.1338
lfoot -23.911 -6.21858
ltoes -8.78102
155
root 6.20195 13.301 21.2426 -143.49 2.39717 -168.857
lowerback 6.07405 0.49709 -9.39269
upperback 1.7583 0.345662 -3.23782
thorax -1.59367 0.317757 1.8723
lowerneck -16.8891 1.55366 -1.54787
upperneck 16.299 1.59938 6.17625
head 7.74927 1.38181 2.50021
rclavicle 1.59028e-014 1.04958e-013
rhumerus -0.471957 27.2468 -78.1642
rradius 55.4907
rwrist -15.0711
rhand -12.8939 -20.1421
rfingers 7.12502
rthumb 13.1954 -49.7045
lclavicle 1.59028e-014 1.04958e-013
lhumerus 23.0253 -23.0609 73.3434
lradius 24.6092
lwrist 33.3019
lhand -33.5993 -8.09258
lfingers 7.12502
lthumb -6.79273 21.7785
rfemur -85.2998 -12.365 38.1287
rtibia 69.8473
rfoot -15.77 -8.49773
rtoes -12.5362
lfemur -94.8184 20.3132 -27.2395
ltibia 80.2552
lfoot -24.1323 -6.72807
ltoes -8.1844
156
root 6.22709 13.2052 21.2392 -143.167 2.16777 -169.067
lowerback 6.17271 0.457492 -9.28611
upperback 1.7866 0.288519 -3.20261
thorax -1.61381 0.288621 1.85383
lowerneck -16.9474 1.48353 -1.62369
upperneck 16.1357 1.51554 6.17906
head 7.70832 1.33205 2.50117
rclavicle 1.74931e-014 1.74931e-014
rhumerus 0.638802 27.2188 -77.9227
rradius 55.0851
rwrist -15.0356
rhand -12.7987 -20.1017
rfingers 7.12502
rthumb 13.2873 -49.6581
lclavicle 1.74931e-014 1.74931e-014
lhumerus 23.25 -22.5379 73.8521
lradius 24.7274
lwrist 33.408
lhand -33.9517 -8.70652
lfingers 7.12502
lthumb -7.13294 21.1533
rfemur -86.5596 -12.7043 38.4684
rtibia 71.2156
rfoot -16.6592 -8.5297
rtoes -12.2404
lfemur -96.1412 20.3024 -27.7536
ltibia 81.3619
lfoot -24.3298 -7.23589
ltoes -7.57445
157
root 6.25234 13.1086 21.2361 -142.852 1.95596 -169.287
lowerback 6.27406 0.422351 -9.16811
upperback 1.8161 0.238419 -3.17537
thorax -1.63498 0.263209 1.82032
lowerneck -16.9944 1.40511 -1.7127
upperneck 15.9736 1.4225 6.19188
head 7.66606 1.27825 2.50651
rclavicle -3.81667e-014 -7.31528e-014
rhumerus 1.7373 27.1624 -77.7021
rradius 54.6588
rwrist -14.99
rhand -12.7187 -20.092
rfingers 7.12502
rthumb 13.3644 -49.6434
lclavicle -3.81667e-014 -7.31528e-014
lhumerus 23.4595 -22.0147 74.3729
lradius 24.8502
lwrist 33.5506
lhand -34.2788 -9.53093
lfingers 7.12502
lthumb -7.44866 20.3179
rfemur -87.8892 -13.0439 38.7935
rtibia 72.6485
rfoot -17.4406 -8.46742
rtoes -11.9196
lfemur -97.4514 20.288 -28.2796
ltibia 82.4569
lfoot -24.5063 -7.74105
ltoes -6.96481
